HIERARCHY
ROOT Hips
{
	OFFSET 0.00000 0.00000 0.00000
	CHANNELS 6 Xposition Yposition Zposition Yrotation Zrotation Xrotation 
	JOINT Lumbar
	{
		OFFSET 0 0 0
		CHANNELS 3 Zrotation Xrotation Yrotation
		JOINT Neck
		{
			OFFSET 0.00 0.2701 0.00
			CHANNELS 3 Zrotation Xrotation Yrotation
			End Site
			{
				OFFSET 0.00 0.1379 0.00
			}
		}
		JOINT RightShoulder
		{
			OFFSET 0.0119 0.2289 0.1181
			CHANNELS 3 Zrotation Xrotation Yrotation
			JOINT RightElbow
			{
				OFFSET 0.00 -0.1475 0.00
				CHANNELS 2 Zrotation Yrotation
				JOINT RightWrist
				{
					OFFSET 0.00 -0.1605 0.00
					CHANNELS 2 Zrotation Xrotation
					End Site
					{
						OFFSET 0.0040 -0.1068 0.0006
					}
				}
			}
		}
		JOINT LeftShoulder
		{
			OFFSET 0.0119 0.2289 -0.1181
			CHANNELS 3 Zrotation Xrotation Yrotation
			JOINT LeftElbow
			{
				OFFSET 0.00 -0.1475 0.00
				CHANNELS 2 Zrotation Yrotation
				JOINT LeftWrist
				{
					OFFSET 0.00 -0.1605 0.00
					CHANNELS 2 Zrotation Xrotation
					End Site
					{
						OFFSET 0.0040 -0.1068 -0.0006
					}
				}
			}
		}
	}
	JOINT RightHip
	{
		OFFSET 0.0316 -0.0424 0.0458
		CHANNELS 3 Zrotation Xrotation Yrotation
		JOINT RightKnee
		{
			OFFSET 0.00 -0.2438 0.00
			CHANNELS 1 Zrotation
			JOINT RightAnkle
			{
				OFFSET 0.00 -0.2449 0.00
				CHANNELS 3 Zrotation Xrotation Yrotation
				End Site
				{
					OFFSET 0.1237 -0.0542 0.0051
				}
			}
		}
	}
	JOINT LeftHip
	{
		OFFSET 0.0316 -0.0424 -0.0458
		CHANNELS 3 Zrotation Xrotation Yrotation
		JOINT LeftKnee
		{
			OFFSET 0.00 -0.2438 0.00
			CHANNELS 1 Zrotation
			JOINT LeftAnkle
			{
				OFFSET 0.00 -0.2449 0.00
				CHANNELS 3 Zrotation Xrotation Yrotation
				End Site
				{
					OFFSET 0.1237 -0.0542 -0.0051
				}
			}
		}
	}
}
MOTION
Frames: 16
Frame Time: 0.02
0.00065 0.00018 0.00032 9.16001 -20.49272 -4.55677 46.00886 2.89296 -5.29775 -14.50479 -11.23573 -0.18292 -28.40597 -6.31546 -15.21494 41.98429 146.04523 18.90111 9.9587 -36.46173 11.22059 6.31844 35.16562 -94.37566 12.17895 0.42094 32.27347 0.50729 -6.49673 -20.51307 -7.94 -4.21115 -2.94844 33.03596 8.73065 3.87932 -26.36123 -9.31348 5.18236 3.55515
0.00044 0.00015 -0.00012 9.46304 -20.63188 -4.58556 46.12799 2.87083 -5.30264 -14.31826 -11.18032 -0.18384 -28.4232 -6.8826 -13.60134 42.04021 140.55012 17.70909 8.9517 -35.63689 11.29474 5.6791 35.76727 -94.32447 12.16657 0.45534 32.39752 0.40422 -6.78543 -20.55135 -7.93528 -4.21276 -2.94439 33.2662 8.63003 3.60965 -26.40674 -9.30481 5.18223 3.5546
0.00024 0.00012 -0.00056 9.76538 -20.7706 -4.6143 46.2467 2.84876 -5.30748 -14.13215 -11.12496 -0.18475 -28.44035 -7.44815 -11.99247 42.09617 135.07191 16.5208 7.94778 -34.81406 11.36878 5.04108 36.36837 -94.27293 12.15409 0.48971 32.52117 0.30147 -7.07294 -20.58951 -7.93062 -4.2144 -2.9404 33.49579 8.52989 3.34176 -26.45212 -9.29602 5.182 3.55397
3e-05 9e-05 -0.001 10.06753 -20.90933 -4.643 46.36546 2.8267 -5.31235 -13.94617 -11.06971 -0.18567 -28.45754 -8.01357 -10.38379 42.15196 129.59371 15.33246 6.94387 -33.99166 11.44268 4.40366 36.96838 -94.22189 12.14176 0.524 32.64483 0.19872 -7.36069 -20.62767 -7.92593 -4.21601 -2.93637 33.72534 8.42961 3.07313 -26.49748 -9.28734 5.18185 3.55341
-0.00017 6e-05 -0.00144 10.37024 -21.04849 -4.67175 46.48465 2.80458 -5.31729 -13.75983 -11.01443 -0.18658 -28.47481 -8.5805 -8.77051 42.20763 124.09866 14.14037 5.9369 -33.16749 11.51673 3.76501 37.56843 -94.17122 12.12947 0.55834 32.76888 0.09565 -7.64976 -20.66596 -7.92116 -4.21758 -2.93229 33.95552 8.32875 2.80222 -26.54297 -9.27884 5.18184 3.55293
-0.00038 3e-05 -0.00187 10.67178 -21.18627 -4.70046 46.60235 2.78263 -5.3219 -13.57424 -10.95891 -0.1875 -28.49168 -9.14311 -7.17102 42.26418 118.65617 12.96013 4.93943 -32.34754 11.5908 3.12828 38.17168 -94.11776 12.11653 0.5928 32.8917 -0.00643 -7.93398 -20.70385 -7.91672 -4.21938 -2.92846 34.18384 8.23011 2.5406 -26.58814 -9.26947 5.18114 3.552
-0.00058 0 -0.00231 10.97539 -21.32668 -4.72922 46.72291 2.76036 -5.32719 -13.38734 -10.90397 -0.18842 -28.50938 -9.71378 -5.54556 42.31893 113.11417 11.75741 3.924 -31.51997 11.66453 2.48879 38.76788 -94.07043 12.10521 0.62686 33.01685 -0.11038 -8.22759 -20.74249 -7.91164 -4.22071 -2.92414 34.41563 8.12721 2.26097 -26.63388 -9.26182 5.1818 3.55197
-0.00078 -3e-05 -0.00275 11.27703 -21.46469 -4.75793 46.84087 2.73838 -5.33181 -13.20164 -10.84845 -0.18933 -28.52627 -10.27707 -3.94399 42.37527 107.66344 10.5753 2.92505 -30.69948 11.73896 1.85113 39.37048 -94.01659 12.09184 0.6615 33.13988 -0.21263 -8.51264 -20.78044 -7.90714 -4.22247 -2.92026 34.64426 8.02806 1.99724 -26.6791 -9.25265 5.18126 3.55115
-0.00099 -5e-05 -0.00319 11.57665 -21.59973 -4.78661 46.95554 2.71677 -5.33577 -13.01731 -10.79235 -0.19024 -28.54236 -10.83139 -2.37116 42.43389 102.32396 9.41839 1.94614 -29.88698 11.81275 1.21816 39.98178 -93.95808 12.07814 0.69604 33.26027 -0.31273 -8.78691 -20.81757 -7.90336 -4.22477 -2.91698 34.86902 7.93418 1.75583 -26.72369 -9.2413 5.17904 3.5492
-0.00118 -8e-05 -0.00363 11.88908 -21.75172 -4.81555 47.08882 2.69305 -5.34404 -12.82482 -10.73997 -0.19117 -28.56359 -11.4375 -0.63153 42.48044 96.34329 8.11647 0.85155 -29.02646 11.88576 0.56555 40.54573 -93.93633 12.0729 0.72873 33.39568 -0.42498 -9.12225 -20.85948 -7.89548 -4.22403 -2.91039 35.11603 7.81205 1.39466 -26.77194 -9.24156 5.18583 3.55325
-0.00141 -0.00011 -0.00407 12.17369 -21.86802 -4.84389 47.18301 2.67378 -5.34288 -12.64977 -10.67953 -0.19206 -28.57364 -11.93414 0.75513 42.55174 91.71653 7.12059 0.00137 -28.26871 11.96323 -0.05021 41.20764 -93.83075 12.04564 0.76683 33.49949 -0.51171 -9.32935 -20.89128 -7.89621 -4.22964 -2.91071 35.31605 7.7482 1.28056 -26.81242 -9.21794 5.17406 3.54498
-0.00177 -0.00014 -0.00449 12.38794 -21.88485 -4.87082 47.16737 2.66691 -5.31828 -12.52106 -10.59847 -0.19284 -28.55545 -12.12874 1.1714 42.69745 90.83656 6.97294 -0.17352 -27.78378 12.0283 -0.5228 42.15648 -93.54913 11.99432 0.80673 33.51464 -0.5268 -9.17555 -20.89509 -7.92139 -4.25349 -2.93088 35.38594 7.85699 1.89811 -26.83158 -9.12293 5.10698 3.49972
-0.00218 -0.00018 -0.00491 12.57319 -21.86598 -4.89706 47.1128 2.66445 -5.28383 -12.41016 -10.50914 -0.19359 -28.52561 -12.2133 1.23261 42.8668 91.31402 7.13189 -0.10315 -27.40402 12.10122 -0.96357 43.1995 -93.17671 11.91615 0.85376 33.49821 -0.51655 -8.89435 -20.88877 -7.9551 -4.2836 -2.95785 35.40866 8.02206 2.75446 -26.84289 -9.00497 5.02205 3.44267
-0.00255 -0.00021 -0.00533 12.76779 -21.86463 -4.92347 47.07791 2.6599 -5.25223 -12.29208 -10.42252 -0.19436 -28.49949 -12.34979 1.45872 43.02109 91.14482 7.14392 -0.14889 -26.98178 12.18816 -1.44969 44.18866 -92.80629 11.82399 0.90698 33.49771 -0.51893 -8.67765 -20.88731 -7.98432 -4.3103 -2.9811 35.45397 8.15295 3.46563 -26.85783 -8.90137 4.94819 3.39315
-0.00295 -0.00025 -0.00574 12.97837 -21.85837 -4.95062 47.0352 2.65582 -5.22721 -12.17012 -10.33994 -0.19508 -28.47986 -12.47961 1.67314 43.19368 91.0884 7.18503 -0.17734 -26.53616 12.20576 -1.8161 45.22815 -92.58755 11.83414 0.92339 33.49124 -0.51655 -8.43396 -20.8849 -8.01603 -4.33929 -3.00692 35.49511 8.31988 4.32928 -26.87263 -8.7813 4.86193 3.33455
-0.00332 -0.00028 -0.00616 13.14894 -21.8531 -4.97587 46.99875 2.65168 -5.18648 -12.06051 -10.24743 -0.1959 -28.4441 -12.59515 1.8228 43.33371 91.13843 7.24268 -0.1801 -26.16562 12.36349 -2.4108 46.1808 -92.04879 11.63512 1.01442 33.48877 -0.51808 -8.21486 -20.88185 -8.04474 -4.36515 -3.02911 35.53274 8.42559 4.93537 -26.88567 -8.68989 4.7971 3.29191
